<svg width="1440" height="420" viewBox="0 0 1440 420" fill="none" xmlns="http://www.w3.org/2000/svg">
<path d="M1440 154.607L1410 124.621C1380 94.9793 1320 35.0073 1260 12.2593C1200 -10.8334 1140 2.95331 1080 21.91C1020 40.8666 960 64.9933 900 82.2266C840 99.46 780 109.8 720 90.154C660 70.8527 600 21.2206 540 13.2933C480 5.36597 420 38.4539 360 65.6826C300 92.5666 240 113.247 180 131.169C120 148.747 60 163.913 30 171.151L0 178.733V420H30C60 420 120 420 180 420C240 420 300 420 360 420C420 420 480 420 540 420C600 420 660 420 720 420C780 420 840 420 900 420C960 420 1020 420 1080 420C1140 420 1200 420 1260 420C1320 420 1380 420 1410 420H1440V154.607Z" fill="#DE7D23"/>
<path d="M1440 320.047L1410 295.231C1380 270.759 1320 221.127 1260 208.719C1200 195.967 1140 220.093 1080 231.467C1020 243.186 960 241.807 900 240.773C840 239.739 780 238.361 720 223.54C660 208.719 600 179.767 540 181.491C480 183.214 420 215.613 360 234.569C300 253.526 240 259.041 180 255.249C120 251.113 60 237.327 30 230.433L0 223.54V420H30C60 420 120 420 180 420C240 420 300 420 360 420C420 420 480 420 540 420C600 420 660 420 720 420C780 420 840 420 900 420C960 420 1020 420 1080 420C1140 420 1200 420 1260 420C1320 420 1380 420 1410 420H1440V320.047Z" fill="#E5A124"/>
</svg>
