<svg width="330" height="89" viewBox="0 0 330 89" fill="none" xmlns="http://www.w3.org/2000/svg">
<path d="M82.3389 89L50.9853 57.6463L57.8979 50.7337L89.2516 82.0874L82.3389 89ZM14.9409 85.5437C10.0033 80.6061 6.34125 75.0513 3.95475 68.8793C1.56825 62.7074 0.375 56.4119 0.375 49.9931C0.375 43.5742 1.56825 37.3199 3.95475 31.2302C6.34125 25.1405 10.0033 19.6269 14.9409 14.6893C19.8785 9.75173 25.4127 6.06912 31.5435 3.64147C37.6744 1.21382 43.9492 0 50.3681 0C56.7869 0 63.0618 1.21382 69.1926 3.64147C75.3235 6.06912 80.8577 9.75173 85.7952 14.6893L14.9409 85.5437ZM15.9284 70.4841L22.5941 63.8183C21.2775 62.0902 20.0225 60.3209 18.8292 58.5104C17.636 56.7 16.5456 54.8895 15.5581 53.0791C14.5706 51.2686 13.7065 49.4582 12.9658 47.6477C12.2252 45.8373 11.5669 44.068 10.9908 42.3398C10.0856 47.1951 10.0239 52.0504 10.8057 56.9057C11.5874 61.761 13.295 66.2871 15.9284 70.4841ZM29.7536 56.9057L57.1572 29.2552C53.6186 26.5395 50.0595 24.3382 46.4797 22.6512C42.9 20.9642 39.5465 19.8121 36.4194 19.1949C33.2922 18.5777 30.4737 18.4748 27.9638 18.8863C25.4538 19.2977 23.4994 20.203 22.1004 21.6019C20.7014 23.0832 19.7962 25.0788 19.3847 27.5888C18.9732 30.0987 19.0761 32.9378 19.6933 36.1061C20.3105 39.2744 21.4626 42.6278 23.1496 46.1664C24.8366 49.705 27.038 53.2848 29.7536 56.9057ZM64.0699 22.3426L70.9825 15.6768C66.621 13.0435 62.0125 11.3153 57.1572 10.4924C52.302 9.66944 47.4467 9.75173 42.5914 10.7393C44.4018 11.3153 46.2123 11.9736 48.0227 12.7143C49.8332 13.4549 51.6436 14.2984 53.4541 15.2448C55.2645 16.1912 57.0544 17.261 58.8237 18.4542C60.593 19.6475 62.3417 20.9436 64.0699 22.3426Z" fill="white"/>
<path d="M109.582 50.1953C109.582 51.5898 109.23 52.9141 108.527 54.168C107.824 55.4102 106.729 56.418 105.24 57.1914C103.764 57.9648 101.854 58.3516 99.5098 58.3516C98.3379 58.3516 97.3066 58.2988 96.416 58.1934C95.5371 58.0879 94.7168 57.918 93.9551 57.6836C93.1934 57.4375 92.4023 57.1211 91.582 56.7344V50.5469C92.9766 51.25 94.3828 51.7891 95.8008 52.1641C97.2188 52.5273 98.502 52.709 99.6504 52.709C100.342 52.709 100.904 52.627 101.338 52.4629C101.783 52.2988 102.111 52.0762 102.322 51.7949C102.533 51.502 102.639 51.168 102.639 50.793C102.639 50.3477 102.48 49.9727 102.164 49.668C101.859 49.3516 101.367 49.0234 100.688 48.6836C100.008 48.3438 99.1113 47.9219 97.998 47.418C97.0488 46.9727 96.1875 46.5156 95.4141 46.0469C94.6523 45.5781 93.9961 45.0449 93.4453 44.4473C92.9062 43.8379 92.4902 43.1289 92.1973 42.3203C91.9043 41.5117 91.7578 40.5566 91.7578 39.4551C91.7578 37.8027 92.1621 36.4199 92.9707 35.3066C93.791 34.1816 94.9277 33.3379 96.3809 32.7754C97.8457 32.2129 99.5332 31.9316 101.443 31.9316C103.119 31.9316 104.625 32.1191 105.961 32.4941C107.309 32.8691 108.516 33.2969 109.582 33.7773L107.455 39.1387C106.354 38.6348 105.27 38.2363 104.203 37.9434C103.137 37.6387 102.146 37.4863 101.232 37.4863C100.635 37.4863 100.143 37.5625 99.7559 37.7148C99.3809 37.8555 99.0996 38.0488 98.9121 38.2949C98.7363 38.541 98.6484 38.8223 98.6484 39.1387C98.6484 39.5371 98.8008 39.8945 99.1055 40.2109C99.4219 40.5273 99.9434 40.873 100.67 41.248C101.408 41.6113 102.41 42.0859 103.676 42.6719C104.93 43.2344 105.996 43.8438 106.875 44.5C107.754 45.1445 108.422 45.9238 108.879 46.8379C109.348 47.7402 109.582 48.8594 109.582 50.1953ZM122.906 52.9199C123.527 52.9199 124.096 52.8555 124.611 52.7266C125.127 52.5977 125.666 52.4336 126.229 52.2344V57.2441C125.479 57.5723 124.682 57.8359 123.838 58.0352C123.006 58.2461 121.939 58.3516 120.639 58.3516C119.35 58.3516 118.213 58.1523 117.229 57.7539C116.244 57.3438 115.477 56.6406 114.926 55.6445C114.387 54.6367 114.117 53.2363 114.117 51.4434V43.2344H111.709V40.4395L114.768 38.2773L116.543 34.0938H121.043V38.084H125.93V43.2344H121.043V50.9863C121.043 51.6309 121.207 52.1172 121.535 52.4453C121.863 52.7617 122.32 52.9199 122.906 52.9199ZM141.732 37.7324C142.107 37.7324 142.5 37.7617 142.91 37.8203C143.32 37.8672 143.625 37.9082 143.824 37.9434L143.209 44.4297C142.986 44.3711 142.699 44.3242 142.348 44.2891C141.996 44.2422 141.504 44.2188 140.871 44.2188C140.438 44.2188 139.975 44.2598 139.482 44.3418C138.99 44.4238 138.521 44.5996 138.076 44.8691C137.643 45.127 137.285 45.5254 137.004 46.0645C136.723 46.5918 136.582 47.3066 136.582 48.209V58H129.709V38.084H134.824L135.896 41.2656H136.23C136.594 40.6094 137.057 40.0176 137.619 39.4902C138.193 38.9512 138.832 38.5234 139.535 38.207C140.25 37.8906 140.982 37.7324 141.732 37.7324ZM156.34 37.7324C158.859 37.7324 160.828 38.3594 162.246 39.6133C163.664 40.8555 164.373 42.6309 164.373 44.9395V58H159.609L158.291 55.3633H158.15C157.588 56.0664 157.008 56.6406 156.41 57.0859C155.824 57.5195 155.15 57.8359 154.389 58.0352C153.627 58.2461 152.695 58.3516 151.594 58.3516C150.445 58.3516 149.414 58.1172 148.5 57.6484C147.586 57.1797 146.865 56.4707 146.338 55.5215C145.811 54.5723 145.547 53.3711 145.547 51.918C145.547 49.7852 146.285 48.2031 147.762 47.1719C149.238 46.1406 151.377 45.5605 154.178 45.4316L157.5 45.3262V45.0449C157.5 44.1543 157.277 43.5215 156.832 43.1465C156.398 42.7715 155.812 42.584 155.074 42.584C154.289 42.584 153.41 42.7246 152.438 43.0059C151.477 43.2754 150.51 43.627 149.537 44.0605L147.551 39.5254C148.699 38.9395 150 38.4941 151.453 38.1895C152.906 37.8848 154.535 37.7324 156.34 37.7324ZM157.535 49.1055L155.953 49.1758C154.688 49.2227 153.797 49.4453 153.281 49.8438C152.777 50.2305 152.525 50.7871 152.525 51.5137C152.525 52.1934 152.707 52.6973 153.07 53.0254C153.434 53.3418 153.914 53.5 154.512 53.5C155.344 53.5 156.053 53.2363 156.639 52.709C157.236 52.1816 157.535 51.4961 157.535 50.6523V49.1055ZM181.512 37.7324C183.562 37.7324 185.238 38.3125 186.539 39.4727C187.84 40.6328 188.49 42.4902 188.49 45.0449V58H181.617V47.1367C181.617 45.8125 181.424 44.8164 181.037 44.1484C180.662 43.4688 180.053 43.1289 179.209 43.1289C177.908 43.1289 177.035 43.6621 176.59 44.7285C176.145 45.7832 175.922 47.3008 175.922 49.2812V58H169.049V38.084H174.234L175.166 40.7207H175.43C175.852 40.0879 176.355 39.5488 176.941 39.1035C177.527 38.6582 178.201 38.3184 178.963 38.084C179.725 37.8496 180.574 37.7324 181.512 37.7324ZM199.354 58.3516C197.303 58.3516 195.615 57.4785 194.291 55.7324C192.967 53.9863 192.305 51.4316 192.305 48.0684C192.305 44.6699 192.984 42.0977 194.344 40.3516C195.703 38.6055 197.461 37.7324 199.617 37.7324C200.508 37.7324 201.275 37.8613 201.92 38.1191C202.564 38.377 203.121 38.7285 203.59 39.1738C204.07 39.6074 204.486 40.0996 204.838 40.6504H204.979C204.896 40.1465 204.82 39.4551 204.75 38.5762C204.68 37.6855 204.645 36.8184 204.645 35.9746V30.6484H211.57V58H206.385L204.908 55.4863H204.645C204.328 56.0137 203.93 56.4941 203.449 56.9277C202.98 57.3613 202.406 57.707 201.727 57.9648C201.059 58.2227 200.268 58.3516 199.354 58.3516ZM202.166 52.9199C203.268 52.9199 204.041 52.5742 204.486 51.8828C204.943 51.1797 205.189 50.1133 205.225 48.6836V48.1387C205.225 46.5684 205.002 45.3672 204.557 44.5352C204.123 43.6914 203.303 43.2695 202.096 43.2695C201.275 43.2695 200.596 43.668 200.057 44.4648C199.518 45.2617 199.248 46.498 199.248 48.1738C199.248 49.8262 199.518 51.0332 200.057 51.7949C200.607 52.5449 201.311 52.9199 202.166 52.9199ZM223.137 66.6484C220.312 66.6484 218.133 66.1738 216.598 65.2246C215.074 64.2871 214.312 62.9336 214.312 61.1641C214.312 59.9805 214.682 59.002 215.42 58.2285C216.158 57.4551 217.266 56.8984 218.742 56.5586C218.133 56.3008 217.6 55.8848 217.143 55.3105C216.697 54.7363 216.475 54.168 216.475 53.6055C216.475 52.9844 216.645 52.4395 216.984 51.9707C217.324 51.4902 218.033 50.9219 219.111 50.2656C218.08 49.8086 217.266 49.0938 216.668 48.1211C216.082 47.1484 215.789 45.9648 215.789 44.5703C215.789 43.1289 216.117 41.8984 216.773 40.8789C217.441 39.8594 218.408 39.0801 219.674 38.541C220.951 38.002 222.504 37.7324 224.332 37.7324C224.578 37.7324 224.953 37.7559 225.457 37.8027C225.961 37.8379 226.471 37.8848 226.986 37.9434C227.502 37.9902 227.9 38.0371 228.182 38.084H235.125V41.4062L232.4 42.4082C232.588 42.748 232.729 43.1172 232.822 43.5156C232.916 43.9141 232.963 44.3359 232.963 44.7812C232.963 46.9258 232.207 48.5898 230.695 49.7734C229.195 50.957 226.951 51.5488 223.963 51.5488C223.225 51.5488 222.639 51.502 222.205 51.4082C222.123 51.5605 222.059 51.7129 222.012 51.8652C221.977 52.0059 221.959 52.1406 221.959 52.2695C221.959 52.5391 222.117 52.7559 222.434 52.9199C222.762 53.0723 223.154 53.1777 223.611 53.2363C224.08 53.2949 224.525 53.3242 224.947 53.3242H228.252C230.49 53.3242 232.166 53.793 233.279 54.7305C234.393 55.668 234.949 57.0801 234.949 58.9668C234.949 61.3926 233.912 63.2793 231.838 64.627C229.775 65.9746 226.875 66.6484 223.137 66.6484ZM223.471 62.3594C224.303 62.3594 225.141 62.2832 225.984 62.1309C226.828 61.9902 227.537 61.7559 228.111 61.4277C228.686 61.0996 228.973 60.666 228.973 60.127C228.973 59.7168 228.803 59.4062 228.463 59.1953C228.123 58.9961 227.684 58.8613 227.145 58.791C226.605 58.7207 226.037 58.6855 225.439 58.6855H222.768C222.275 58.6855 221.824 58.7617 221.414 58.9141C221.016 59.0781 220.699 59.2949 220.465 59.5645C220.23 59.834 220.113 60.1387 220.113 60.4785C220.113 61.041 220.418 61.4922 221.027 61.832C221.637 62.1836 222.451 62.3594 223.471 62.3594ZM224.402 47.6641C225.059 47.6641 225.562 47.4121 225.914 46.9082C226.277 46.4043 226.459 45.6484 226.459 44.6406C226.459 43.6094 226.289 42.8359 225.949 42.3203C225.609 41.8047 225.094 41.5469 224.402 41.5469C223.688 41.5469 223.154 41.8047 222.803 42.3203C222.451 42.8242 222.275 43.5859 222.275 44.6055C222.275 45.625 222.451 46.3926 222.803 46.9082C223.154 47.4121 223.688 47.6641 224.402 47.6641ZM245.039 58H238.166V30.6484H245.039V58ZM259.523 37.7324C262.043 37.7324 264.012 38.3594 265.43 39.6133C266.848 40.8555 267.557 42.6309 267.557 44.9395V58H262.793L261.475 55.3633H261.334C260.771 56.0664 260.191 56.6406 259.594 57.0859C259.008 57.5195 258.334 57.8359 257.572 58.0352C256.811 58.2461 255.879 58.3516 254.777 58.3516C253.629 58.3516 252.598 58.1172 251.684 57.6484C250.77 57.1797 250.049 56.4707 249.521 55.5215C248.994 54.5723 248.73 53.3711 248.73 51.918C248.73 49.7852 249.469 48.2031 250.945 47.1719C252.422 46.1406 254.561 45.5605 257.361 45.4316L260.684 45.3262V45.0449C260.684 44.1543 260.461 43.5215 260.016 43.1465C259.582 42.7715 258.996 42.584 258.258 42.584C257.473 42.584 256.594 42.7246 255.621 43.0059C254.66 43.2754 253.693 43.627 252.721 44.0605L250.734 39.5254C251.883 38.9395 253.184 38.4941 254.637 38.1895C256.09 37.8848 257.719 37.7324 259.523 37.7324ZM260.719 49.1055L259.137 49.1758C257.871 49.2227 256.98 49.4453 256.465 49.8438C255.961 50.2305 255.709 50.7871 255.709 51.5137C255.709 52.1934 255.891 52.6973 256.254 53.0254C256.617 53.3418 257.098 53.5 257.695 53.5C258.527 53.5 259.236 53.2363 259.822 52.709C260.42 52.1816 260.719 51.4961 260.719 50.6523V49.1055ZM251.42 33.1621C251.42 32.2012 251.707 31.498 252.281 31.0527C252.855 30.6074 253.564 30.3848 254.408 30.3848C255.217 30.3848 255.92 30.6074 256.518 31.0527C257.127 31.498 257.432 32.2012 257.432 33.1621C257.432 34.0879 257.127 34.7793 256.518 35.2363C255.92 35.6816 255.217 35.9043 254.408 35.9043C253.564 35.9043 252.855 35.6816 252.281 35.2363C251.707 34.7793 251.42 34.0879 251.42 33.1621ZM259.84 33.1621C259.84 32.2012 260.127 31.498 260.701 31.0527C261.287 30.6074 262.008 30.3848 262.863 30.3848C263.684 30.3848 264.393 30.6074 264.99 31.0527C265.6 31.498 265.904 32.2012 265.904 33.1621C265.904 34.0879 265.6 34.7793 264.99 35.2363C264.393 35.6816 263.684 35.9043 262.863 35.9043C262.008 35.9043 261.287 35.6816 260.701 35.2363C260.127 34.7793 259.84 34.0879 259.84 33.1621ZM278.42 58.3516C276.369 58.3516 274.682 57.4785 273.357 55.7324C272.033 53.9863 271.371 51.4316 271.371 48.0684C271.371 44.6699 272.051 42.0977 273.41 40.3516C274.77 38.6055 276.527 37.7324 278.684 37.7324C279.574 37.7324 280.342 37.8613 280.986 38.1191C281.631 38.377 282.188 38.7285 282.656 39.1738C283.137 39.6074 283.553 40.0996 283.904 40.6504H284.045C283.963 40.1465 283.887 39.4551 283.816 38.5762C283.746 37.6855 283.711 36.8184 283.711 35.9746V30.6484H290.637V58H285.451L283.975 55.4863H283.711C283.395 56.0137 282.996 56.4941 282.516 56.9277C282.047 57.3613 281.473 57.707 280.793 57.9648C280.125 58.2227 279.334 58.3516 278.42 58.3516ZM281.232 52.9199C282.334 52.9199 283.107 52.5742 283.553 51.8828C284.01 51.1797 284.256 50.1133 284.291 48.6836V48.1387C284.291 46.5684 284.068 45.3672 283.623 44.5352C283.189 43.6914 282.369 43.2695 281.162 43.2695C280.342 43.2695 279.662 43.668 279.123 44.4648C278.584 45.2617 278.314 46.498 278.314 48.1738C278.314 49.8262 278.584 51.0332 279.123 51.7949C279.674 52.5449 280.377 52.9199 281.232 52.9199ZM294.891 66.6484C294.34 66.6484 293.707 66.6016 292.992 66.5078C292.266 66.4258 291.668 66.3262 291.199 66.209V60.8477C291.574 60.9531 291.92 61.0293 292.236 61.0762C292.553 61.1348 292.91 61.1641 293.309 61.1641C293.871 61.1641 294.357 60.9648 294.768 60.5664C295.189 60.1797 295.4 59.3828 295.4 58.1758V38.084H302.273V59.6172C302.273 60.8125 302.039 61.9434 301.57 63.0098C301.102 64.0879 300.328 64.9609 299.25 65.6289C298.172 66.3086 296.719 66.6484 294.891 66.6484ZM295.225 33.127C295.225 31.9082 295.576 31.0938 296.279 30.6836C296.994 30.2734 297.855 30.0684 298.863 30.0684C299.848 30.0684 300.703 30.2734 301.43 30.6836C302.168 31.0938 302.537 31.9082 302.537 33.127C302.537 34.3105 302.168 35.1133 301.43 35.5352C300.703 35.9453 299.848 36.1504 298.863 36.1504C297.855 36.1504 296.994 35.9453 296.279 35.5352C295.576 35.1133 295.225 34.3105 295.225 33.127ZM316.037 37.7324C317.971 37.7324 319.641 38.0723 321.047 38.752C322.453 39.4199 323.537 40.4277 324.299 41.7754C325.061 43.123 325.441 44.8105 325.441 46.8379V49.8965H313.154C313.213 50.9395 313.6 51.7949 314.314 52.4629C315.041 53.1309 316.107 53.4648 317.514 53.4648C318.756 53.4648 319.893 53.3418 320.924 53.0957C321.967 52.8496 323.039 52.4688 324.141 51.9531V56.8926C323.18 57.3965 322.131 57.7656 320.994 58C319.857 58.2344 318.422 58.3516 316.688 58.3516C314.684 58.3516 312.891 57.9941 311.309 57.2793C309.727 56.5645 308.479 55.457 307.564 53.957C306.662 52.457 306.211 50.5293 306.211 48.1738C306.211 45.7832 306.621 43.8203 307.441 42.2852C308.262 40.7383 309.41 39.5957 310.887 38.8574C312.363 38.1074 314.08 37.7324 316.037 37.7324ZM316.283 42.4082C315.475 42.4082 314.795 42.666 314.244 43.1816C313.705 43.6855 313.389 44.4824 313.295 45.5723H319.201C319.189 44.9863 319.072 44.4531 318.85 43.9727C318.627 43.4922 318.299 43.1113 317.865 42.8301C317.443 42.5488 316.916 42.4082 316.283 42.4082Z" fill="white"/>
</svg>
