<svg width="46" height="57" viewBox="0 0 46 57" fill="none" xmlns="http://www.w3.org/2000/svg">
<path d="M5.6875 56.95C4.12344 56.95 2.78451 56.3924 1.6707 55.2771C0.556901 54.1618 0 52.8211 0 51.255V17.085C0 15.5189 0.556901 14.1782 1.6707 13.0629C2.78451 11.9476 4.12344 11.39 5.6875 11.39H11.375C11.375 8.25775 12.4888 5.57635 14.7164 3.34581C16.944 1.11527 19.6219 0 22.75 0C25.8781 0 28.556 1.11527 30.7836 3.34581C33.0112 5.57635 34.125 8.25775 34.125 11.39H39.8125C41.3766 11.39 42.7155 11.9476 43.8293 13.0629C44.9431 14.1782 45.5 15.5189 45.5 17.085V51.255C45.5 52.8211 44.9431 54.1618 43.8293 55.2771C42.7155 56.3924 41.3766 56.95 39.8125 56.95H5.6875ZM5.6875 51.255H39.8125V17.085H34.125V22.78C34.125 23.5868 33.8525 24.2631 33.3074 24.8088C32.7624 25.3546 32.087 25.6275 31.2813 25.6275C30.4755 25.6275 29.8001 25.3546 29.2551 24.8088C28.71 24.2631 28.4375 23.5868 28.4375 22.78V17.085H17.0625V22.78C17.0625 23.5868 16.79 24.2631 16.2449 24.8088C15.6999 25.3546 15.0245 25.6275 14.2188 25.6275C13.413 25.6275 12.7376 25.3546 12.1926 24.8088C11.6475 24.2631 11.375 23.5868 11.375 22.78V17.085H5.6875V51.255ZM17.0625 11.39H28.4375C28.4375 9.82387 27.8806 8.48318 26.7668 7.36791C25.653 6.25264 24.3141 5.695 22.75 5.695C21.1859 5.695 19.847 6.25264 18.7332 7.36791C17.6194 8.48318 17.0625 9.82387 17.0625 11.39Z" fill="white"/>
</svg>
